<?xml version="1.0" encoding="utf-8"?>
<!-- Generator: Adobe Illustrator 16.0.0, SVG Export Plug-In . SVG Version: 6.00 Build 0)  -->
<!DOCTYPE svg PUBLIC "-//W3C//DTD SVG 1.1//EN" "http://www.w3.org/Graphics/SVG/1.1/DTD/svg11.dtd">
<svg version="1.1" id="Layer_1" xmlns="http://www.w3.org/2000/svg" xmlns:xlink="http://www.w3.org/1999/xlink" x="0px" y="0px"
	 width="1280px" height="800px" viewBox="0 0 1280 800" enable-background="new 0 0 1280 800" xml:space="preserve">
<rect x="32.5" display="none" fill="#000078" width="1228" height="800"/>
<g>
	<path fill="#F9D70B" d="M139.769,346.815c0.939,0,1.231,0.128,2.231,0.357V346h40v76h-40v0.488c-1,0.229-1.292,0.357-2.231,0.357
		c-11.259,0-20.386-17.021-20.386-38.016S128.51,346.815,139.769,346.815z"/>
	<g>
		<path fill="#FEF7CE" d="M124.58,359H182v6h-59.743C122.921,364,123.701,362,124.58,359z"/>
		<path fill="#FBE76D" d="M122.53,365H182v6h-61.064C121.369,369,121.904,367,122.53,365z"/>
	</g>
	<rect x="162" y="346" fill="#0D3754" width="20" height="76"/>
</g>
<polygon fill="#D1E2EE" points="291,699.709 291,689 295.526,689 "/>
<polygon fill="#D1CAB0" points="316.526,689 272.526,780 230.526,689 "/>
<polygon fill="#D1E2EE" points="303.472,716 242.988,716 230.526,689 316.526,689 "/>
<path fill="#0D3754" d="M261.402,756.267c3.199-4.983,7.538-8.053,12.321-8.053c4.255,0,8.159,2.427,11.222,6.472l-12.418,25.684
	L261.402,756.267z"/>
<polyline fill="#7272DC" points="295.526,689.368 305.526,712.118 316.526,689.368 "/>
<polyline fill="#1A6DA9" points="274.526,689.368 284.526,712.118 295.526,689.368 "/>
<polyline fill="#000078" points="253.526,689.368 241.026,712.118 230.526,689.368 "/>
<polyline fill="#0F0F93" points="274.526,689.368 263.526,712.118 253.526,689.368 "/>
<polygon fill="#A4C5DC" points="285,712.118 285,689 291,689 291,699.709 "/>
<path fill="#545368" d="M281.891,751.435l-9.365,28.935l1.793-32.133C277.043,748.381,279.611,749.518,281.891,751.435z"/>
<g>
	<rect x="230" y="422" fill="#000078" width="85" height="262"/>
	<rect x="294" y="422" fill="#7272DC" width="22" height="262"/>
	<rect x="273" y="422" fill="#1A6DA9" width="22" height="262"/>
	<rect x="252" y="422" fill="#0F0F93" width="22" height="262"/>
	<rect x="284" y="422" fill="#A4C5DC" width="6" height="262"/>
	<rect x="290" y="422" fill="#D1E2EE" width="5" height="262"/>
</g>
<path fill="#F20FC7" d="M1249.317,459.438L1233,401.492c-0.244-0.864-0.869-1.571-1.692-1.912l-37.662-15.694
	c-0.813-0.341-1.737-0.292-2.513,0.125l-41.849,22.438l-41.803-22.39c-0.777-0.419-1.698-0.462-2.514-0.12l-37.66,15.741
	c-0.825,0.348-1.446,1.046-1.692,1.906l-16.318,57.853c-0.292,1.037,0.006,2.149,0.778,2.899l96.542,93.362
	c0.506,0.953,1.497,1.299,2.591,1.299h0.201c1.094,0,2.084-0.346,2.59-1.299l96.541-93.496
	C1249.312,461.455,1249.611,460.477,1249.317,459.438z M1105.472,390.077l9.243,36.016l-25.114,13.049l-18.426-34.729
	L1105.472,390.077z M1148.845,412.72l0.205,0.025c0.668,0.087,1.319-0.066,1.867-0.394l10.832,5.62l-12.479,13.606l-12.509-13.646
	l10.869-5.647C1147.988,412.515,1148.4,412.668,1148.845,412.72z M1227.42,404.305l-18.797,34.681l-24.785-12.857l9.308-36.102
	L1227.42,404.305z M1197.901,460h-22.476l7.66-30.342l24.137,12.83L1197.901,460z M1209.826,444.148L1240.393,460h-39.159
	L1209.826,444.148z M1134.073,419.329l13.209,14.417l-21.551,23.493l-7.606-29.62L1134.073,419.329z M1117.379,424.706
	l-8.408-32.762l23.051,25.15L1117.379,424.706z M1180.417,427.653l-7.626,29.593l-21.535-23.5l13.188-14.378L1180.417,427.653z
	 M1166.496,417.132l23.14-25.235l-8.47,32.849L1166.496,417.132z M1170.205,460h-41.89l20.95-22.845L1170.205,460z M1171.646,461
	l-22.381,87.148l-0.076-0.033L1126.87,461H1171.646z M1144.726,542.33L1101.563,461h22.281L1144.726,542.33z M1174.669,461h21.645
	l-41.276,76.157L1174.669,461z M1163.801,415.733l-9.882-5.124l28.688-15.384L1163.801,415.733z M1134.712,415.697l-18.729-20.438
	l28.588,15.312L1134.712,415.697z M1115.461,429.625l7.637,30.375h-23.089l-9.036-17.34L1115.461,429.625z M1096.691,460h-38.479
	l30.162-15.675L1096.691,460z M1098.248,461l42.863,80.771L1057.825,461H1098.248z M1199.647,461h41.145l-86.743,84.123
	L1199.647,461z M1242.405,456.501l-31.184-16.17l17.521-32.332L1242.405,456.501z M1069.848,408.172l17.155,32.324l-30.788,16.001
	L1069.848,408.172z"/>
<text transform="matrix(1 0 0 1 326.0728 720.3389)" fill="#D1CAB0" font-family="'MyriadPro-Regular'" font-size="311.2909">en</text>
<text transform="matrix(1 0 0 1 654.791 720.3389)" fill="#D1CAB0" font-family="'MyriadPro-Regular'" font-size="311.2909">herz</text>
<rect x="-834" y="78" fill="#AA0078" width="188" height="170"/>
<rect x="-594" y="78" fill="#000078" width="194" height="170"/>
<rect x="-834" y="288" fill="#B3B3D7" width="188" height="162"/>
<rect x="-834" y="485" fill="#006699" width="188" height="162"/>
<rect x="-591" y="485" fill="#FCEE21" width="188" height="162"/>
<rect x="-594" y="288" fill="#D1CAB0" width="194" height="162"/>
<circle display="none" fill="#000078" cx="601.5" cy="429" r="196.5"/>
<rect x="231" y="29" fill="#000078" width="95" height="65"/>
<rect x="231" y="78" fill="#7272DC" width="95" height="17"/>
<rect x="231" y="62" fill="#A4C5DC" width="95" height="17"/>
<rect x="235" y="72" fill="#D1E2EE" width="95" height="7"/>
<rect x="231" y="46" fill="#0F0F93" width="95" height="17"/>
<g>
	<rect x="231" y="94" fill="#000078" width="85" height="253"/>
	<rect x="295" y="94" fill="#7272DC" width="22" height="253"/>
	<rect x="274" y="94" fill="#A4C5DC" width="22" height="253"/>
	<rect x="253" y="94" fill="#0F0F93" width="22" height="253"/>
	<rect x="286" y="94" fill="#D1E2EE" width="9" height="253"/>
	<rect x="253" y="55" fill="#0F0F93" width="22" height="292"/>
	<rect x="274" y="64" fill="#A4C5DC" width="22" height="283"/>
	<rect x="286" y="72" fill="#D1E2EE" width="10" height="275"/>
	<rect x="231" y="40" fill="#000078" width="22" height="307"/>
</g>
<g>
	<path fill="#7272DC" stroke="#7272DC" stroke-width="5" stroke-miterlimit="10" d="M315.5,80.518v11.426
		c77.221,0.252,139.736,58.753,139.736,130.887S392.721,353.467,315.5,353.719v13.313c84.539-0.252,152.989-64.293,152.989-143.258
		C468.489,144.809,400.039,80.771,315.5,80.518z"/>
	<path fill="#D1E2EE" d="M314.75,70.411c-0.167,0,0.25,0.005-0.75,0.006v9.512c1,0,0.583-0.006,0.75-0.006
		c84.769,0,153.614,64.709,153.614,144.532c0,79.822-68.907,144.533-153.676,144.533c-0.167,0,0.313-0.005-0.688-0.006v9.512
		c1,0,0.583,0.006,0.75,0.006c90.349,0,163.59-68.969,163.59-154.045C478.34,139.378,405.099,70.411,314.75,70.411z"/>
	<path fill="#A4C5DC" d="M315,62.765v8.125c90.349,0,163.59,68.833,163.59,153.742c0,84.909-73.241,153.743-163.59,153.743v8.125
		c95.122,0,172.235-72.473,172.235-161.868C487.235,135.235,410.122,62.765,315,62.765z"/>
	<path fill="#0F0F93" stroke="#0F0F93" stroke-width="6" stroke-miterlimit="10" d="M315,48.642v11.47
		c95.122,0,172.235,72.959,172.235,162.959c0,90-77.114,162.96-172.235,162.96V397.5c101.819,0,184.358-78.095,184.358-174.429
		C499.358,126.737,416.819,48.642,315,48.642z"/>
	<path fill="#000078" stroke="#000078" stroke-width="5" stroke-miterlimit="10" d="M315,31.75c-4.816,0-9.59-0.25-14.321,0.75
		H314.5v12.638c102,0,184.358,79.6,184.358,177.791c0,98.191-82.358,177.792-184.358,177.792v13.639
		c110,0,198.75-85.582,198.75-191.304C513.25,117.331,424.628,31.75,315,31.75z"/>
</g>
<g>
	<rect x="190" y="352" fill="#000078" width="125" height="65"/>
	<rect x="190" y="351" fill="#7272DC" width="126" height="18"/>
	<rect x="190" y="369" fill="#A4C5DC" width="125" height="15"/>
	<rect x="190" y="369" fill="#D1E2EE" width="125" height="9"/>
	<rect x="190" y="383" fill="#0F0F93" width="125" height="15"/>
</g>
</svg>
